<svg xmlns="http://www.w3.org/2000/svg" xmlns:xlink="http://www.w3.org/1999/xlink" width="500" zoomAndPan="magnify" viewBox="0 0 375 374.999991" height="500" preserveAspectRatio="xMidYMid meet" version="1.0"><path fill="#5e0094" d="M 198.925781 74.628906 C 182.320312 58.789062 159.90625 50.832031 140.433594 65.1875 C 140.113281 66.101562 139.914062 67.015625 139.691406 67.957031 C 122.789062 137.644531 87.871094 264.050781 37.132812 312.882812 C 78.921875 326.945312 106.429688 309.570312 123.332031 281.226562 C 128.992188 270.402344 134.796875 254.117188 140.234375 240.078125 C 158.546875 190.0625 183.085938 124.226562 198.925781 74.628906 Z M 198.925781 74.628906 " fill-opacity="1" fill-rule="nonzero"/><path fill="#7d00ae" d="M 140.433594 65.1875 C 140.410156 65.1875 140.410156 65.1875 140.433594 65.1875 C 140.085938 66.101562 141.027344 67.117188 140.703125 68.03125 C 115.894531 135.175781 88.414062 262.296875 37.109375 312.90625 C 69.804688 321.65625 101.707031 302.15625 116.808594 273.8125 C 128.597656 255.871094 186.175781 73.691406 188.871094 66.324219 C 188.84375 66.300781 152.515625 55.796875 140.433594 65.1875 Z M 140.433594 65.1875 " fill-opacity="1" fill-rule="nonzero"/><path fill="#9c00c9" d="M 140.433594 65.1875 C 140.433594 65.1875 141.867188 67.042969 141.839844 67.042969 C 141.839844 67.042969 140.507812 65.214844 140.507812 65.214844 C 140.1875 66.128906 140.777344 67.808594 140.730469 68.773438 C 137.9375 122.449219 119.675781 244.921875 37.109375 312.882812 C 71.066406 319.605469 103.5625 283.917969 122.8125 241.785156 C 142.832031 193.742188 163.6875 112.464844 179.132812 64.226562 C 178.933594 64.175781 148.859375 58.738281 140.433594 65.1875 Z M 140.433594 65.1875 " fill-opacity="1" fill-rule="nonzero"/><path fill="#d900fd" d="M 152.34375 59.898438 C 145.574219 61.382812 143.449219 63.113281 140.433594 65.164062 C 131.785156 89.160156 123.355469 116.714844 115.523438 141.550781 C 95.875 198.6875 79.292969 267.535156 37.132812 312.855469 C 91.28125 296.671875 152.515625 59.875 152.34375 59.898438 Z M 152.34375 59.898438 " fill-opacity="1" fill-rule="nonzero"/><path fill="#ba00e3" d="M 152.246094 60.320312 C 151.132812 66.695312 88.238281 295.535156 37.355469 312.832031 C 120.242188 291.234375 147.699219 118.171875 166.851562 59.824219 C 165.984375 62.46875 159.363281 58.886719 152.246094 60.320312 Z M 152.246094 60.320312 " fill-opacity="1" fill-rule="nonzero"/><path fill="#5e0094" d="M 191.070312 98.871094 C 191.070312 98.871094 191.042969 98.921875 191.019531 99.019531 C 190.96875 99.167969 190.871094 99.441406 190.746094 99.8125 C 189.339844 103.863281 183.605469 120.25 178.960938 132.703125 C 176.6875 58.441406 140.433594 65.164062 140.433594 65.164062 C 140.828125 64.890625 141.199219 64.621094 141.570312 64.347656 C 142.757812 63.53125 143.894531 62.839844 144.980469 62.246094 C 149.15625 59.898438 152.371094 58.984375 153.085938 58.789062 C 153.109375 58.789062 153.160156 58.761719 153.160156 58.761719 C 153.183594 58.761719 153.210938 58.738281 153.234375 58.738281 L 163.589844 62 L 165.789062 62.691406 L 169.867188 65.90625 L 178.121094 72.429688 L 186.273438 78.855469 L 186.867188 81.351562 Z M 191.070312 98.871094 " fill-opacity="0.8" fill-rule="nonzero"/><path fill="#9c00c9" d="M 140.433594 65.164062 C 140.457031 65.140625 140.554688 65.066406 140.753906 64.964844 C 140.628906 65.039062 140.53125 65.113281 140.433594 65.164062 Z M 140.433594 65.164062 " fill-opacity="1" fill-rule="nonzero"/><path fill="#ba00e3" d="M 344.902344 111.699219 C 304.277344 182.03125 228.828125 232.046875 140.160156 240.078125 C 136.601562 249.890625 132.699219 260.070312 128.375 270.078125 C 208.316406 266.273438 317.277344 202.9375 344.902344 111.699219 C 344.953125 111.597656 344.902344 111.699219 344.902344 111.699219 Z M 344.902344 111.699219 " fill-opacity="1" fill-rule="nonzero"/><path fill="#9c00c9" d="M 344.902344 111.699219 C 304.277344 182.03125 228.828125 232.046875 140.160156 240.078125 C 136.601562 249.890625 136.503906 249.765625 132.921875 259.257812 C 212.867188 255.449219 304.945312 203.308594 344.902344 111.699219 C 344.953125 111.597656 344.902344 111.699219 344.902344 111.699219 Z M 344.902344 111.699219 " fill-opacity="1" fill-rule="nonzero"/><path fill="#7d00ae" d="M 139.863281 240.179688 C 136.304688 249.988281 138.457031 244.824219 135.441406 252.582031 C 215.386719 248.777344 302.96875 196.410156 344.902344 111.699219 C 304.277344 182.03125 228.558594 232.144531 139.863281 240.179688 Z M 139.863281 240.179688 " fill-opacity="1" fill-rule="nonzero"/><path fill="#5e0094" d="M 288.089844 179.015625 C 285.398438 181.261719 282.652344 183.460938 279.859375 185.613281 C 260.734375 200.339844 239.382812 212.574219 216.351562 221.792969 C 215.015625 222.335938 213.679688 222.855469 212.347656 223.375 C 207.675781 225.152344 202.929688 226.832031 198.136719 228.367188 C 197.371094 228.613281 196.605469 228.835938 195.863281 229.082031 C 179.058594 234.296875 161.488281 237.929688 143.375 239.808594 C 142.335938 239.90625 141.296875 240.03125 140.261719 240.105469 C 140.085938 240.128906 139.9375 240.128906 139.765625 240.152344 C 138.777344 242.894531 137.914062 243.886719 137.070312 244.105469 L 137.070312 246.875 C 137.292969 246.851562 137.492188 246.851562 137.714844 246.824219 C 139.789062 246.652344 141.890625 246.453125 143.96875 246.234375 C 162.574219 244.207031 181.703125 239.929688 200.535156 233.480469 C 201.152344 233.257812 201.792969 233.0625 202.410156 232.839844 C 207.15625 231.183594 211.875 229.378906 216.570312 227.425781 C 218.152344 226.785156 219.734375 226.089844 221.292969 225.425781 C 242.296875 216.28125 262.585938 204.34375 280.996094 189.738281 C 284.136719 187.269531 287.199219 184.699219 290.214844 182.054688 C 312.359375 162.703125 331.335938 139.203125 344.902344 111.773438 C 330.226562 137.125 310.925781 159.910156 288.089844 179.015625 Z M 288.089844 179.015625 " fill-opacity="1" fill-rule="nonzero"/><path fill="#d900fd" d="M 344.902344 111.699219 C 335.167969 144.714844 318.660156 174.046875 297.308594 198.636719 C 295.15625 201.109375 292.957031 203.554688 290.710938 205.925781 C 290.167969 206.496094 289.648438 207.0625 289.101562 207.605469 C 287.644531 209.140625 286.136719 210.621094 284.65625 212.105469 C 272.816406 223.769531 259.769531 234.125 245.832031 243.070312 C 243.3125 244.699219 240.742188 246.257812 238.144531 247.789062 C 231.300781 251.816406 224.28125 255.523438 217.066406 258.859375 C 216.398438 259.15625 215.757812 259.476562 215.089844 259.773438 C 191.042969 270.671875 165.121094 277.714844 138.355469 280.359375 C 133.339844 280.855469 128.324219 281.175781 123.257812 281.347656 C 123.28125 281.300781 123.308594 281.226562 123.332031 281.175781 C 125.085938 277.492188 126.765625 273.785156 128.375 270.03125 C 128.421875 270.03125 128.449219 270.03125 128.496094 270.03125 C 132.871094 269.832031 137.34375 269.4375 141.867188 268.871094 C 164.035156 266.125 187.832031 259.230469 211.183594 248.800781 C 211.949219 248.457031 212.71875 248.109375 213.484375 247.765625 C 218.921875 245.292969 224.308594 242.625 229.644531 239.757812 C 231.84375 238.570312 234.042969 237.386719 236.21875 236.125 C 251.960938 227.179688 267.085938 216.675781 280.921875 204.765625 C 282.085938 203.777344 283.246094 202.761719 284.382812 201.726562 C 285.496094 200.738281 286.632812 199.722656 287.71875 198.6875 C 290.265625 196.339844 292.761719 193.941406 295.183594 191.496094 C 317.941406 168.710938 335.835938 141.722656 344.902344 111.699219 Z M 344.902344 111.699219 " fill-opacity="1" fill-rule="nonzero"/><path fill="#5e0094" d="M 290.710938 205.949219 C 290.167969 206.519531 289.101562 207.632812 289.101562 207.632812 C 287.644531 209.164062 286.136719 210.644531 284.65625 212.128906 C 284.308594 212.078125 284.085938 212.03125 284.085938 212.03125 L 280.921875 204.765625 L 277.117188 196.066406 L 277.6875 192.234375 L 278.5 186.625 L 278.5 186.578125 C 278.5 186.578125 278.5 186.578125 278.527344 186.601562 C 278.699219 186.726562 279.835938 187.515625 281.46875 189.269531 C 283.195312 191.171875 285.46875 194.1875 287.71875 198.710938 C 288.734375 200.761719 289.746094 203.160156 290.710938 205.875 C 290.710938 205.902344 290.710938 205.925781 290.710938 205.949219 Z M 290.710938 205.949219 " fill-opacity="0.8" fill-rule="nonzero"/><path fill="#d900fd" d="M 287.496094 211.832031 C 276.5 192.160156 260.855469 163.496094 243.484375 136.164062 C 241.679688 133.320312 239.851562 130.503906 237.996094 127.710938 C 226.308594 109.96875 214.003906 93.285156 201.84375 80.632812 C 192.007812 70.402344 182.296875 62.792969 173.101562 59.429688 C 170.113281 58.320312 167.171875 57.675781 164.328125 57.527344 C 164.503906 57.527344 164.675781 57.503906 164.847656 57.503906 C 182.417969 56.835938 195.367188 58.269531 205.894531 62.890625 C 208.195312 63.878906 210.34375 65.039062 212.445312 66.351562 C 224.058594 73.640625 232.832031 85.898438 242.621094 104.976562 C 261.769531 140.511719 274.96875 177.234375 287.496094 211.808594 C 287.496094 211.785156 287.496094 211.808594 287.496094 211.832031 Z M 287.496094 211.832031 " fill-opacity="1" fill-rule="nonzero"/><path fill="#9c00c9" d="M 140.433594 65.1875 C 140.457031 65.1875 140.457031 65.164062 140.484375 65.164062 C 140.457031 65.164062 140.433594 65.164062 140.433594 65.1875 Z M 140.433594 65.1875 " fill-opacity="1" fill-rule="nonzero"/><path fill="#9c00c9" d="M 324.070312 313.253906 L 323.949219 313.253906 C 288.929688 237.804688 239.382812 150.890625 191.144531 86.242188 C 187.089844 81.597656 182.9375 76.851562 178.121094 72.453125 C 168.976562 63.78125 155.136719 55.921875 143.101562 63.410156 C 219.808594 17.121094 297.753906 262.445312 324.070312 313.253906 Z M 324.070312 313.253906 " fill-opacity="1" fill-rule="nonzero"/><path fill="#7d00ae" d="M 323.949219 313.253906 L 323.898438 313.253906 C 323.527344 312.511719 323.15625 311.792969 322.761719 311.054688 C 308.035156 282.683594 287.496094 251.867188 262.835938 219.839844 C 248.773438 201.578125 233.375 182.894531 216.917969 164.0625 C 214.917969 158.875 213.210938 154.476562 212.246094 152.027344 C 207.550781 138.929688 201.746094 123.113281 196.800781 111.523438 C 196.332031 110.460938 195.886719 109.425781 195.441406 108.4375 C 195 107.445312 194.578125 106.484375 194.132812 105.570312 C 184 83.921875 172.804688 66.175781 160.328125 61.359375 C 160.402344 61.382812 160.449219 61.40625 160.523438 61.433594 C 189.238281 65.4375 224.429688 118.097656 256.039062 176.394531 C 266.195312 195.101562 275.957031 214.402344 285.050781 232.863281 C 300.667969 264.542969 314.1875 293.753906 323.949219 313.253906 Z M 323.949219 313.253906 " fill-opacity="1" fill-rule="nonzero"/><path fill="#ba00e3" d="M 324.171875 313.253906 L 324.070312 313.253906 C 315.496094 294.71875 304.253906 266.941406 291.128906 236.398438 C 285.371094 223.027344 279.269531 209.140625 272.867188 195.273438 C 272.003906 193.398438 271.136719 191.542969 270.273438 189.664062 C 260.140625 168.066406 249.316406 146.714844 237.996094 127.660156 C 226.480469 108.261719 214.472656 91.285156 202.238281 78.855469 C 190.082031 66.523438 177.699219 58.714844 165.320312 57.503906 C 165.171875 57.476562 165.023438 57.476562 164.847656 57.453125 C 165.023438 57.476562 165.21875 57.476562 165.394531 57.503906 C 167.296875 57.675781 169.148438 57.898438 170.976562 58.171875 C 171.003906 58.171875 171.003906 58.171875 171.003906 58.171875 C 183.480469 60.074219 194.355469 64.59375 203.992188 71.09375 C 245.386719 98.96875 263.824219 163.148438 287.472656 211.757812 C 287.769531 212.402344 288.089844 213.019531 288.410156 213.660156 C 288.660156 214.328125 288.882812 214.996094 289.128906 215.664062 C 289.820312 217.640625 290.535156 219.617188 291.230469 221.617188 C 292.144531 224.261719 293.082031 226.90625 293.996094 229.601562 C 294.070312 229.773438 294.121094 229.972656 294.195312 230.144531 C 304.402344 259.675781 314.582031 290.914062 324.171875 313.253906 Z M 324.171875 313.253906 " fill-opacity="1" fill-rule="nonzero"/><path fill="#5e0094" d="M 296.246094 239.386719 C 294.613281 238.421875 292.910156 237.433594 291.15625 236.398438 C 272.84375 225.671875 248.773438 211.5625 231.472656 201.453125 C 231.449219 201.378906 221.167969 174.988281 216.941406 164.0625 C 238.589844 171.675781 258.335938 181.386719 272.867188 195.273438 C 280.675781 202.738281 286.976562 211.4375 291.230469 221.644531 C 292.144531 224.289062 293.082031 226.933594 293.996094 229.625 C 294.070312 229.796875 294.121094 229.996094 294.195312 230.167969 C 295.058594 233.136719 295.726562 236.199219 296.246094 239.386719 Z M 296.246094 239.386719 " fill-opacity="0.6" fill-rule="nonzero"/><path fill="#5e0094" d="M 322.785156 311.078125 C 308.058594 282.707031 287.523438 251.890625 262.859375 219.863281 C 248.796875 201.601562 233.402344 182.917969 216.941406 164.089844 C 214.941406 158.898438 213.234375 154.5 212.273438 152.054688 C 207.578125 138.957031 201.769531 123.140625 196.828125 111.550781 C 196.355469 110.488281 195.914062 109.449219 195.46875 108.460938 C 203.621094 111.894531 220.253906 134.828125 239.0625 164.558594 C 251.417969 184.082031 264.738281 206.542969 277.242188 228.316406 C 296.566406 261.925781 313.914062 293.953125 322.785156 311.078125 Z M 322.785156 311.078125 " fill-opacity="1" fill-rule="nonzero"/><path fill="#5e0094" d="M 245.808594 243.117188 C 235.972656 249.394531 225.691406 255.105469 215.015625 259.847656 C 212.570312 247.914062 207.179688 234.199219 199.347656 228.042969 C 206.292969 225.894531 209.601562 224.511719 216.351562 221.792969 C 224.457031 227.648438 237.703125 237.238281 245.808594 243.117188 Z M 245.808594 243.117188 " fill-opacity="0.8" fill-rule="nonzero"/><path fill="#d900fd" d="M 335.734375 307.742188 C 335.734375 307.742188 335.734375 307.71875 335.710938 307.71875 C 332.648438 301.636719 328.101562 294.917969 323.132812 287.578125 C 286.0625 232.691406 199.84375 149.78125 113.992188 147.53125 C 42.671875 146.269531 26.386719 210.375 66.269531 250.0625 C 68.59375 252.386719 71.113281 254.609375 73.808594 256.734375 C 73.066406 258.414062 70.71875 263.382812 69.1875 266.125 C 65.480469 263.851562 62.046875 261.40625 58.882812 258.835938 C -0.03125 211.117188 36.023438 119.730469 119.675781 128.179688 C 211.730469 135.175781 320.214844 235.210938 335.734375 307.742188 Z M 335.734375 307.742188 " fill-opacity="1" fill-rule="nonzero"/><path fill="#9c00c9" d="M 332.351562 310.878906 C 326.789062 315.550781 319.722656 318.691406 312.53125 319.132812 C 305.734375 306.703125 297.726562 294.472656 289.128906 283.003906 C 271.113281 259.035156 250.03125 237.210938 226.777344 218.308594 C 191.191406 189.960938 102.871094 151.582031 74.523438 185.019531 C 65.234375 199.574219 68.667969 221.914062 83.964844 233.503906 C 82.261719 237.804688 80.875 240.722656 79.195312 244.527344 C 53.816406 223.523438 47.042969 179.1875 84.535156 162.703125 C 177.625 123.410156 300.175781 260.246094 324.292969 313.722656 C 324.367188 313.699219 332.277344 310.90625 332.351562 310.878906 Z M 332.351562 310.878906 " fill-opacity="1" fill-rule="nonzero"/><path fill="#5e0094" d="M 312.507812 319.109375 C 296.441406 320.195312 280.429688 309.371094 271.089844 294.074219 C 247.535156 259.503906 162.03125 175.777344 102.402344 182.054688 C 82.234375 184.921875 69.015625 207.878906 87.375 224.832031 C 87.175781 225.324219 84.582031 232 83.742188 234.148438 C 66.074219 221.175781 63.328125 198.5625 74.523438 185.042969 C 108.355469 143.675781 193.714844 190.875 226.730469 218.308594 C 249.984375 237.210938 271.089844 259.035156 289.078125 283.003906 C 297.703125 294.445312 305.710938 306.679688 312.507812 319.109375 Z M 312.507812 319.109375 " fill-opacity="1" fill-rule="nonzero"/><path fill="#ba00e3" d="M 335.734375 307.742188 C 333.140625 311.25 328.667969 314.289062 324.910156 315.722656 C 300.792969 266.519531 207.726562 157.265625 118.339844 157.316406 C 88.535156 157.339844 60.390625 171.179688 58.757812 199.402344 C 57.570312 214.453125 64.46875 228.710938 73.90625 239.214844 C 75.613281 241.117188 77.417969 242.894531 79.246094 244.527344 C 79.292969 244.578125 79.34375 244.625 79.394531 244.652344 C 76.453125 251.398438 73.882812 256.761719 73.859375 256.761719 C 71.089844 254.957031 68.445312 252.878906 65.949219 250.558594 C 54.410156 239.855469 46.082031 224.039062 44.917969 207.507812 C 41.929688 165.152344 76.796875 145.058594 115.003906 143.230469 C 210.34375 138.707031 290.5625 236.296875 323.675781 287.453125 C 328.941406 295.558594 332.992188 302.503906 335.761719 307.691406 C 335.734375 307.71875 335.734375 307.742188 335.734375 307.742188 Z M 335.734375 307.742188 " fill-opacity="1" fill-rule="nonzero"/><path fill="#5e0094" d="M 149.304688 215.636719 C 149.304688 215.636719 129.3125 190.949219 100.078125 188.554688 C 102.277344 181.484375 103.710938 178 103.710938 178 L 140.65625 182.621094 L 159.015625 189.074219 Z M 149.304688 215.636719 " fill-opacity="0.8" fill-rule="nonzero"/><path fill="#5e0094" d="M 141.839844 268.917969 C 141 272.675781 139.863281 276.554688 138.332031 280.410156 C 133.316406 280.902344 128.300781 281.226562 123.234375 281.421875 C 123.257812 281.375 123.28125 281.300781 123.308594 281.25 C 122.835938 282.039062 122.34375 282.808594 121.875 283.597656 C 127.632812 266.816406 131.832031 250.707031 133.019531 233.457031 L 140.902344 238.300781 C 140.679688 238.894531 140.457031 239.511719 140.210938 240.105469 C 141.25 240.003906 142.285156 239.90625 143.324219 239.808594 L 143.496094 239.90625 C 144.335938 247.417969 144.289062 257.722656 141.839844 268.917969 Z M 141.839844 268.917969 " fill-opacity="0.6" fill-rule="nonzero"/><path fill="#d900fd" d="M 195.46875 108.4375 C 175.054688 65.335938 147.996094 59.726562 140.410156 65.1875 C 142.78125 62.742188 148.859375 59.75 153.210938 58.789062 C 172.363281 54.660156 194.132812 57.355469 205.894531 62.867188 C 202.191406 62.246094 198.484375 62.148438 195.441406 62.222656 C 191.070312 62.347656 186.695312 61.925781 182.417969 60.914062 C 180.292969 60.417969 177.898438 60.023438 175.648438 60.074219 C 166.109375 60.269531 163.5625 62.027344 163.5625 62.027344 C 163.5625 62.027344 178.664062 70.429688 195.46875 108.4375 Z M 195.46875 108.4375 " fill-opacity="1" fill-rule="nonzero"/><path fill="#5e0094" d="M 87.398438 224.832031 C 87.203125 225.324219 84.609375 232 83.765625 234.148438 C 82.085938 238.347656 80.875 240.820312 79.269531 244.527344 C 79.320312 244.578125 79.367188 244.625 79.417969 244.652344 C 76.476562 251.398438 73.90625 256.761719 73.882812 256.761719 C 73.140625 258.441406 70.792969 263.40625 69.261719 266.152344 C 65.554688 263.878906 62.117188 261.429688 58.957031 258.859375 C 58.90625 258.835938 58.882812 258.785156 58.882812 258.785156 C 58.882812 258.785156 63.773438 253.375 65.972656 250.558594 C 66.097656 250.410156 66.222656 250.234375 66.34375 250.085938 C 69.113281 246.503906 71.632812 242.847656 73.832031 239.410156 C 73.882812 239.335938 73.90625 239.289062 73.957031 239.214844 C 76.03125 235.925781 77.835938 232.863281 79.34375 230.195312 C 79.492188 229.945312 79.617188 229.699219 79.765625 229.453125 C 82.359375 224.734375 83.792969 221.617188 84.015625 221.175781 C 84.902344 222.410156 86.113281 223.546875 87.398438 224.832031 Z M 87.398438 224.832031 " fill-opacity="0.6" fill-rule="nonzero"/><path fill="#d900fd" d="M 197.097656 66.621094 L 193.589844 64.867188 C 195.664062 65.832031 196.925781 66.523438 197.097656 66.621094 Z M 197.097656 66.621094 " fill-opacity="1" fill-rule="nonzero"/></svg>