<svg xmlns="http://www.w3.org/2000/svg" xmlns:xlink="http://www.w3.org/1999/xlink" width="500" zoomAndPan="magnify" viewBox="0 0 375 374.999991" height="500" preserveAspectRatio="xMidYMid meet" version="1.0"><path fill="#5e0094" d="M 193.441406 116.507812 C 184.800781 108.265625 173.132812 104.121094 162.996094 111.59375 C 162.832031 112.070312 162.726562 112.546875 162.613281 113.035156 C 153.8125 149.308594 135.640625 215.101562 109.234375 240.515625 C 130.984375 247.835938 145.300781 238.792969 154.097656 224.039062 C 157.042969 218.40625 160.066406 209.929688 162.894531 202.621094 C 172.425781 176.589844 185.199219 142.324219 193.441406 116.507812 Z M 193.441406 116.507812 " fill-opacity="1" fill-rule="nonzero"/><path fill="#7d00ae" d="M 162.996094 111.59375 C 162.984375 111.59375 162.984375 111.59375 162.996094 111.59375 C 162.816406 112.070312 163.304688 112.597656 163.140625 113.074219 C 150.226562 148.023438 135.921875 214.1875 109.21875 240.527344 C 126.238281 245.082031 142.84375 234.933594 150.699219 220.179688 C 156.835938 210.84375 186.804688 116.019531 188.207031 112.1875 C 188.195312 112.175781 169.289062 106.707031 162.996094 111.59375 Z M 162.996094 111.59375 " fill-opacity="1" fill-rule="nonzero"/><path fill="#9c00c9" d="M 162.996094 111.59375 C 162.996094 111.59375 163.742188 112.558594 163.730469 112.558594 C 163.730469 112.558594 163.035156 111.609375 163.035156 111.609375 C 162.867188 112.082031 163.179688 112.957031 163.152344 113.460938 C 161.699219 141.398438 152.191406 205.144531 109.21875 240.515625 C 126.894531 244.015625 143.808594 225.441406 153.828125 203.511719 C 164.246094 178.503906 175.101562 136.199219 183.140625 111.09375 C 183.039062 111.066406 167.382812 108.238281 162.996094 111.59375 Z M 162.996094 111.59375 " fill-opacity="1" fill-rule="nonzero"/><path fill="#d900fd" d="M 169.199219 108.84375 C 165.671875 109.613281 164.566406 110.515625 162.996094 111.582031 C 158.496094 124.070312 154.109375 138.414062 150.03125 151.339844 C 139.804688 181.078125 131.175781 216.914062 109.234375 240.503906 C 137.414062 232.078125 169.289062 108.828125 169.199219 108.84375 Z M 169.199219 108.84375 " fill-opacity="1" fill-rule="nonzero"/><path fill="#ba00e3" d="M 169.144531 109.0625 C 168.566406 112.378906 135.832031 231.488281 109.347656 240.488281 C 152.488281 229.25 166.78125 139.171875 176.746094 108.804688 C 176.296875 110.179688 172.851562 108.316406 169.144531 109.0625 Z M 169.144531 109.0625 " fill-opacity="1" fill-rule="nonzero"/><path fill="#5e0094" d="M 189.351562 129.125 C 189.351562 129.125 189.339844 129.152344 189.328125 129.203125 C 189.300781 129.28125 189.25 129.421875 189.1875 129.617188 C 188.453125 131.726562 185.46875 140.253906 183.050781 146.734375 C 181.867188 108.082031 162.996094 111.582031 162.996094 111.582031 C 163.203125 111.441406 163.394531 111.300781 163.589844 111.15625 C 164.207031 110.734375 164.796875 110.375 165.363281 110.066406 C 167.539062 108.84375 169.210938 108.367188 169.582031 108.265625 C 169.597656 108.265625 169.621094 108.25 169.621094 108.25 C 169.632812 108.25 169.648438 108.238281 169.660156 108.238281 L 175.050781 109.9375 L 176.195312 110.296875 L 178.316406 111.96875 L 182.613281 115.363281 L 186.859375 118.707031 L 187.167969 120.007812 Z M 189.351562 129.125 " fill-opacity="0.8" fill-rule="nonzero"/><path fill="#9c00c9" d="M 162.996094 111.582031 C 163.011719 111.570312 163.0625 111.53125 163.164062 111.480469 C 163.101562 111.519531 163.050781 111.554688 162.996094 111.582031 Z M 162.996094 111.582031 " fill-opacity="1" fill-rule="nonzero"/><path fill="#ba00e3" d="M 269.421875 135.800781 C 248.277344 172.410156 209.007812 198.441406 162.855469 202.621094 C 161.003906 207.730469 158.972656 213.027344 156.722656 218.238281 C 198.332031 216.257812 255.042969 183.289062 269.421875 135.800781 C 269.449219 135.75 269.421875 135.800781 269.421875 135.800781 Z M 269.421875 135.800781 " fill-opacity="1" fill-rule="nonzero"/><path fill="#9c00c9" d="M 269.421875 135.800781 C 248.277344 172.410156 209.007812 198.441406 162.855469 202.621094 C 161.003906 207.730469 160.953125 207.664062 159.085938 212.605469 C 200.699219 210.625 248.625 183.484375 269.421875 135.800781 C 269.449219 135.75 269.421875 135.800781 269.421875 135.800781 Z M 269.421875 135.800781 " fill-opacity="1" fill-rule="nonzero"/><path fill="#7d00ae" d="M 162.703125 202.675781 C 160.851562 207.78125 161.96875 205.09375 160.398438 209.132812 C 202.007812 207.152344 247.59375 179.894531 269.421875 135.800781 C 248.277344 172.410156 208.867188 198.492188 162.703125 202.675781 Z M 162.703125 202.675781 " fill-opacity="1" fill-rule="nonzero"/><path fill="#5e0094" d="M 239.851562 170.839844 C 238.449219 172.011719 237.019531 173.15625 235.566406 174.273438 C 225.613281 181.941406 214.5 188.308594 202.511719 193.105469 C 201.816406 193.386719 201.121094 193.65625 200.425781 193.929688 C 197.996094 194.855469 195.527344 195.730469 193.03125 196.527344 C 192.632812 196.65625 192.234375 196.769531 191.847656 196.898438 C 183.101562 199.613281 173.957031 201.503906 164.527344 202.480469 C 163.988281 202.53125 163.449219 202.597656 162.90625 202.636719 C 162.816406 202.648438 162.742188 202.648438 162.652344 202.660156 C 162.136719 204.089844 161.6875 204.605469 161.25 204.71875 L 161.25 206.160156 C 161.363281 206.148438 161.46875 206.148438 161.582031 206.132812 C 162.664062 206.042969 163.757812 205.941406 164.835938 205.824219 C 174.523438 204.769531 184.476562 202.546875 194.28125 199.1875 C 194.601562 199.074219 194.933594 198.96875 195.257812 198.855469 C 197.726562 197.992188 200.183594 197.054688 202.628906 196.039062 C 203.449219 195.703125 204.273438 195.34375 205.082031 194.996094 C 216.015625 190.238281 226.578125 184.023438 236.160156 176.421875 C 237.792969 175.136719 239.386719 173.796875 240.957031 172.421875 C 252.480469 162.351562 262.359375 150.117188 269.421875 135.839844 C 261.78125 149.039062 251.734375 160.898438 239.851562 170.839844 Z M 239.851562 170.839844 " fill-opacity="1" fill-rule="nonzero"/><path fill="#d900fd" d="M 269.421875 135.800781 C 264.355469 152.988281 255.761719 168.253906 244.648438 181.050781 C 243.53125 182.339844 242.386719 183.613281 241.214844 184.847656 C 240.929688 185.144531 240.660156 185.4375 240.378906 185.722656 C 239.621094 186.519531 238.835938 187.289062 238.0625 188.0625 C 231.902344 194.132812 225.109375 199.523438 217.855469 204.179688 C 216.542969 205.027344 215.207031 205.839844 213.855469 206.636719 C 210.292969 208.734375 206.640625 210.660156 202.882812 212.398438 C 202.535156 212.554688 202.203125 212.71875 201.855469 212.875 C 189.339844 218.546875 175.847656 222.210938 161.917969 223.589844 C 159.304688 223.847656 156.695312 224.011719 154.058594 224.101562 C 154.070312 224.078125 154.085938 224.039062 154.097656 224.011719 C 155.011719 222.097656 155.886719 220.167969 156.722656 218.210938 C 156.746094 218.210938 156.757812 218.210938 156.785156 218.210938 C 159.0625 218.109375 161.390625 217.902344 163.742188 217.609375 C 175.28125 216.179688 187.667969 212.589844 199.824219 207.164062 C 200.222656 206.984375 200.621094 206.804688 201.019531 206.625 C 203.847656 205.335938 206.652344 203.949219 209.429688 202.457031 C 210.574219 201.839844 211.722656 201.222656 212.851562 200.566406 C 221.046875 195.910156 228.917969 190.441406 236.121094 184.242188 C 236.726562 183.726562 237.332031 183.199219 237.921875 182.660156 C 238.5 182.144531 239.09375 181.617188 239.660156 181.078125 C 240.984375 179.855469 242.28125 178.609375 243.542969 177.335938 C 255.390625 165.476562 264.703125 151.429688 269.421875 135.800781 Z M 269.421875 135.800781 " fill-opacity="1" fill-rule="nonzero"/><path fill="#5e0094" d="M 241.214844 184.859375 C 240.929688 185.15625 240.378906 185.734375 240.378906 185.734375 C 239.621094 186.53125 238.835938 187.304688 238.0625 188.074219 C 237.882812 188.050781 237.765625 188.023438 237.765625 188.023438 L 236.121094 184.242188 L 234.140625 179.714844 L 234.4375 177.722656 L 234.859375 174.800781 L 234.859375 174.777344 C 234.859375 174.777344 234.859375 174.777344 234.875 174.789062 C 234.964844 174.851562 235.554688 175.265625 236.402344 176.175781 C 237.304688 177.167969 238.488281 178.738281 239.660156 181.089844 C 240.1875 182.160156 240.714844 183.40625 241.214844 184.820312 C 241.214844 184.835938 241.214844 184.847656 241.214844 184.859375 Z M 241.214844 184.859375 " fill-opacity="0.8" fill-rule="nonzero"/><path fill="#d900fd" d="M 239.542969 187.921875 C 233.820312 177.683594 225.675781 162.761719 216.632812 148.535156 C 215.695312 147.058594 214.742188 145.589844 213.777344 144.136719 C 207.695312 134.902344 201.289062 126.21875 194.960938 119.632812 C 189.839844 114.308594 184.785156 110.347656 180 108.597656 C 178.445312 108.019531 176.914062 107.683594 175.4375 107.609375 C 175.527344 107.609375 175.617188 107.59375 175.707031 107.59375 C 184.851562 107.246094 191.589844 107.992188 197.070312 110.398438 C 198.265625 110.914062 199.386719 111.519531 200.480469 112.199219 C 206.523438 115.992188 211.089844 122.375 216.183594 132.304688 C 226.152344 150.800781 233.019531 169.914062 239.542969 187.910156 C 239.542969 187.894531 239.542969 187.910156 239.542969 187.921875 Z M 239.542969 187.921875 " fill-opacity="1" fill-rule="nonzero"/><path fill="#9c00c9" d="M 162.996094 111.59375 C 163.011719 111.59375 163.011719 111.582031 163.023438 111.582031 C 163.011719 111.582031 162.996094 111.582031 162.996094 111.59375 Z M 162.996094 111.59375 " fill-opacity="1" fill-rule="nonzero"/><path fill="#9c00c9" d="M 258.578125 240.707031 L 258.515625 240.707031 C 240.289062 201.441406 214.5 156.203125 189.390625 122.554688 C 187.28125 120.136719 185.121094 117.667969 182.613281 115.375 C 177.855469 110.863281 170.652344 106.773438 164.386719 110.667969 C 204.3125 86.578125 244.878906 214.261719 258.578125 240.707031 Z M 258.578125 240.707031 " fill-opacity="1" fill-rule="nonzero"/><path fill="#7d00ae" d="M 258.515625 240.707031 L 258.488281 240.707031 C 258.296875 240.324219 258.101562 239.949219 257.898438 239.5625 C 250.230469 224.796875 239.542969 208.757812 226.707031 192.089844 C 219.386719 182.582031 211.375 172.859375 202.808594 163.058594 C 201.765625 160.355469 200.878906 158.066406 200.375 156.792969 C 197.933594 149.976562 194.910156 141.746094 192.335938 135.710938 C 192.09375 135.160156 191.859375 134.617188 191.628906 134.105469 C 191.398438 133.589844 191.179688 133.089844 190.949219 132.613281 C 185.675781 121.34375 179.847656 112.109375 173.351562 109.601562 C 173.390625 109.613281 173.417969 109.628906 173.453125 109.640625 C 188.402344 111.722656 206.71875 139.132812 223.167969 169.476562 C 228.453125 179.214844 233.535156 189.257812 238.269531 198.867188 C 246.398438 215.355469 253.433594 230.558594 258.515625 240.707031 Z M 258.515625 240.707031 " fill-opacity="1" fill-rule="nonzero"/><path fill="#ba00e3" d="M 258.628906 240.707031 L 258.578125 240.707031 C 254.117188 231.0625 248.261719 216.605469 241.433594 200.707031 C 238.4375 193.746094 235.257812 186.519531 231.929688 179.304688 C 231.476562 178.324219 231.027344 177.359375 230.578125 176.382812 C 225.304688 165.140625 219.667969 154.027344 213.777344 144.113281 C 207.785156 134.015625 201.535156 125.179688 195.167969 118.707031 C 188.839844 112.289062 182.394531 108.226562 175.949219 107.59375 C 175.875 107.582031 175.796875 107.582031 175.707031 107.570312 C 175.796875 107.582031 175.898438 107.582031 175.988281 107.59375 C 176.980469 107.683594 177.945312 107.800781 178.894531 107.941406 C 178.910156 107.941406 178.910156 107.941406 178.910156 107.941406 C 185.402344 108.933594 191.0625 111.285156 196.078125 114.667969 C 217.625 129.179688 227.21875 162.582031 239.53125 187.882812 C 239.683594 188.21875 239.851562 188.539062 240.019531 188.871094 C 240.148438 189.21875 240.261719 189.566406 240.390625 189.914062 C 240.75 190.945312 241.125 191.972656 241.484375 193.015625 C 241.960938 194.390625 242.449219 195.765625 242.925781 197.167969 C 242.964844 197.257812 242.988281 197.363281 243.027344 197.453125 C 248.339844 212.824219 253.640625 229.082031 258.628906 240.707031 Z M 258.628906 240.707031 " fill-opacity="1" fill-rule="nonzero"/><path fill="#5e0094" d="M 244.097656 202.261719 C 243.246094 201.761719 242.359375 201.246094 241.445312 200.707031 C 231.914062 195.125 219.386719 187.78125 210.382812 182.519531 C 210.371094 182.480469 205.019531 168.742188 202.820312 163.058594 C 214.085938 167.019531 224.363281 172.074219 231.929688 179.304688 C 235.992188 183.1875 239.273438 187.714844 241.484375 193.027344 C 241.960938 194.402344 242.449219 195.78125 242.925781 197.183594 C 242.964844 197.273438 242.988281 197.375 243.027344 197.464844 C 243.476562 199.007812 243.824219 200.605469 244.097656 202.261719 Z M 244.097656 202.261719 " fill-opacity="0.6" fill-rule="nonzero"/><path fill="#5e0094" d="M 257.910156 239.578125 C 250.242188 224.8125 239.554688 208.769531 226.71875 192.101562 C 219.398438 182.597656 211.386719 172.871094 202.820312 163.070312 C 201.777344 160.371094 200.890625 158.082031 200.390625 156.808594 C 197.945312 149.988281 194.921875 141.757812 192.351562 135.726562 C 192.105469 135.171875 191.875 134.632812 191.640625 134.117188 C 195.886719 135.90625 204.542969 147.839844 214.332031 163.316406 C 220.761719 173.476562 227.695312 185.167969 234.203125 196.5 C 244.261719 213.992188 253.292969 230.664062 257.910156 239.578125 Z M 257.910156 239.578125 " fill-opacity="1" fill-rule="nonzero"/><path fill="#5e0094" d="M 217.84375 204.207031 C 212.722656 207.472656 207.375 210.445312 201.816406 212.914062 C 200.542969 206.699219 197.738281 199.5625 193.660156 196.359375 C 197.277344 195.238281 199 194.519531 202.511719 193.105469 C 206.730469 196.152344 213.625 201.144531 217.84375 204.207031 Z M 217.84375 204.207031 " fill-opacity="0.8" fill-rule="nonzero"/><path fill="#d900fd" d="M 264.648438 237.839844 C 264.648438 237.839844 264.648438 237.828125 264.636719 237.828125 C 263.042969 234.664062 260.675781 231.164062 258.089844 227.34375 C 238.796875 198.777344 193.917969 155.625 149.234375 154.453125 C 112.113281 153.796875 103.636719 187.164062 124.398438 207.820312 C 125.605469 209.027344 126.917969 210.1875 128.320312 211.292969 C 127.933594 212.167969 126.710938 214.753906 125.914062 216.179688 C 123.984375 214.996094 122.199219 213.722656 120.550781 212.386719 C 89.886719 187.546875 108.652344 139.984375 152.191406 144.382812 C 200.105469 148.023438 256.574219 200.089844 264.648438 237.839844 Z M 264.648438 237.839844 " fill-opacity="1" fill-rule="nonzero"/><path fill="#9c00c9" d="M 262.886719 239.472656 C 259.992188 241.90625 256.316406 243.539062 252.570312 243.769531 C 249.035156 237.300781 244.867188 230.933594 240.390625 224.964844 C 231.015625 212.488281 220.042969 201.132812 207.9375 191.292969 C 189.417969 176.539062 143.445312 156.5625 128.695312 173.964844 C 123.855469 181.542969 125.644531 193.167969 133.605469 199.203125 C 132.71875 201.441406 132 202.957031 131.125 204.9375 C 117.914062 194.003906 114.390625 170.929688 133.902344 162.351562 C 182.355469 141.898438 246.140625 213.117188 258.695312 240.953125 C 258.734375 240.941406 262.847656 239.488281 262.886719 239.472656 Z M 262.886719 239.472656 " fill-opacity="1" fill-rule="nonzero"/><path fill="#5e0094" d="M 252.558594 243.757812 C 244.199219 244.324219 235.863281 238.6875 231 230.726562 C 218.742188 212.734375 174.238281 169.15625 143.203125 172.421875 C 132.707031 173.914062 125.824219 185.863281 135.382812 194.6875 C 135.277344 194.945312 133.929688 198.417969 133.492188 199.535156 C 124.292969 192.78125 122.867188 181.015625 128.695312 173.976562 C 146.300781 152.445312 190.730469 177.015625 207.914062 191.292969 C 220.015625 201.132812 231 212.488281 240.367188 224.964844 C 244.855469 230.921875 249.023438 237.289062 252.558594 243.757812 Z M 252.558594 243.757812 " fill-opacity="1" fill-rule="nonzero"/><path fill="#ba00e3" d="M 264.648438 237.839844 C 263.300781 239.667969 260.972656 241.25 259.015625 241.996094 C 246.460938 216.386719 198.023438 159.519531 151.5 159.546875 C 135.988281 159.558594 121.335938 166.761719 120.488281 181.453125 C 119.871094 189.285156 123.457031 196.707031 128.371094 202.171875 C 129.257812 203.164062 130.199219 204.089844 131.148438 204.9375 C 131.175781 204.964844 131.203125 204.988281 131.226562 205.003906 C 129.695312 208.515625 128.359375 211.304688 128.347656 211.304688 C 126.90625 210.367188 125.527344 209.285156 124.230469 208.078125 C 118.222656 202.507812 113.890625 194.273438 113.285156 185.671875 C 111.726562 163.625 129.875 153.167969 149.761719 152.214844 C 199.386719 149.859375 241.136719 200.65625 258.375 227.28125 C 261.113281 231.5 263.222656 235.113281 264.664062 237.816406 C 264.648438 237.828125 264.648438 237.839844 264.648438 237.839844 Z M 264.648438 237.839844 " fill-opacity="1" fill-rule="nonzero"/><path fill="#5e0094" d="M 167.617188 189.902344 C 167.617188 189.902344 157.210938 177.050781 141.992188 175.804688 C 143.136719 172.125 143.882812 170.3125 143.882812 170.3125 L 163.113281 172.71875 L 172.671875 176.074219 Z M 167.617188 189.902344 " fill-opacity="0.8" fill-rule="nonzero"/><path fill="#5e0094" d="M 163.730469 217.632812 C 163.292969 219.589844 162.703125 221.609375 161.90625 223.613281 C 159.292969 223.871094 156.683594 224.039062 154.046875 224.140625 C 154.058594 224.117188 154.070312 224.078125 154.085938 224.050781 C 153.839844 224.464844 153.582031 224.863281 153.339844 225.273438 C 156.335938 216.539062 158.523438 208.152344 159.140625 199.175781 L 163.242188 201.695312 C 163.125 202.003906 163.011719 202.328125 162.882812 202.636719 C 163.421875 202.585938 163.960938 202.53125 164.503906 202.480469 L 164.59375 202.53125 C 165.03125 206.441406 165.003906 211.808594 163.730469 217.632812 Z M 163.730469 217.632812 " fill-opacity="0.6" fill-rule="nonzero"/><path fill="#d900fd" d="M 191.640625 134.105469 C 181.019531 111.671875 166.933594 108.753906 162.984375 111.59375 C 164.21875 110.320312 167.382812 108.765625 169.648438 108.265625 C 179.617188 106.117188 190.949219 107.519531 197.070312 110.386719 C 195.140625 110.066406 193.210938 110.011719 191.628906 110.050781 C 189.351562 110.117188 187.078125 109.898438 184.851562 109.371094 C 183.746094 109.113281 182.496094 108.90625 181.328125 108.933594 C 176.363281 109.035156 175.035156 109.949219 175.035156 109.949219 C 175.035156 109.949219 182.894531 114.320312 191.640625 134.105469 Z M 191.640625 134.105469 " fill-opacity="1" fill-rule="nonzero"/><path fill="#5e0094" d="M 135.394531 194.6875 C 135.292969 194.945312 133.941406 198.417969 133.503906 199.535156 C 132.628906 201.722656 132 203.007812 131.164062 204.9375 C 131.1875 204.964844 131.214844 204.988281 131.238281 205.003906 C 129.710938 208.515625 128.371094 211.304688 128.359375 211.304688 C 127.972656 212.179688 126.75 214.765625 125.953125 216.191406 C 124.023438 215.007812 122.238281 213.734375 120.589844 212.398438 C 120.5625 212.386719 120.550781 212.359375 120.550781 212.359375 C 120.550781 212.359375 123.097656 209.542969 124.242188 208.078125 C 124.308594 208 124.371094 207.910156 124.4375 207.832031 C 125.875 205.96875 127.1875 204.0625 128.332031 202.277344 C 128.359375 202.238281 128.371094 202.210938 128.398438 202.171875 C 129.476562 200.460938 130.417969 198.867188 131.203125 197.476562 C 131.277344 197.347656 131.34375 197.222656 131.421875 197.09375 C 132.769531 194.636719 133.515625 193.015625 133.632812 192.78125 C 134.09375 193.425781 134.726562 194.019531 135.394531 194.6875 Z M 135.394531 194.6875 " fill-opacity="0.6" fill-rule="nonzero"/><path fill="#d900fd" d="M 192.492188 112.339844 L 190.664062 111.429688 C 191.746094 111.929688 192.402344 112.289062 192.492188 112.339844 Z M 192.492188 112.339844 " fill-opacity="1" fill-rule="nonzero"/></svg>